<?xml version="1.0" standalone="no"?>
<!DOCTYPE svg PUBLIC "-//W3C//DTD SVG 20010904//EN"
 "http://www.w3.org/TR/2001/REC-SVG-20010904/DTD/svg10.dtd">
<svg version="1.0" xmlns="http://www.w3.org/2000/svg"
 width="505.000000pt" height="505.000000pt" viewBox="0 0 505.000000 505.000000"
 preserveAspectRatio="xMidYMid meet">
<metadata>
Created by potrace 1.14, written by Peter Selinger 2001-2017
</metadata>
<g transform="translate(0.000000,505.000000) scale(0.100000,-0.100000)"
fill="#000000" stroke="none">
<path d="M2549 5016 c-2 -2 -56 -7 -119 -10 -122 -6 -143 -8 -230 -22 -30 -5
-59 -9 -65 -9 -71 -8 -286 -67 -420 -116 -215 -79 -553 -265 -660 -365 -14
-13 -28 -24 -31 -24 -8 0 -141 -120 -228 -206 -84 -83 -139 -145 -199 -224
-31 -41 -62 -81 -68 -88 -78 -93 -222 -360 -289 -532 -18 -47 -36 -92 -40
-100 -12 -24 -78 -290 -85 -340 -3 -25 -8 -52 -10 -60 -7 -24 -15 -109 -20
-199 -3 -46 -7 -86 -9 -88 -2 -2 0 -20 4 -39 5 -20 4 -34 -2 -34 -5 0 -7 -4
-4 -9 4 -5 8 -60 11 -123 2 -62 7 -138 10 -168 5 -44 47 -264 59 -305 1 -5 10
-37 20 -70 10 -33 19 -67 21 -75 8 -41 84 -228 142 -349 52 -108 191 -339 223
-371 3 -3 24 -31 48 -63 72 -96 230 -263 320 -335 22 -18 53 -45 69 -58 15
-14 40 -32 55 -42 16 -9 28 -20 28 -24 0 -4 5 -8 11 -8 6 0 23 -9 37 -21 94
-73 327 -199 512 -277 176 -74 401 -136 570 -157 30 -4 75 -10 99 -15 48 -9
394 -6 476 3 146 18 225 32 320 57 77 21 238 74 270 89 11 6 63 28 115 50 102
42 180 81 247 124 24 15 45 27 48 27 7 0 96 60 105 69 3 3 25 20 50 36 25 16
47 32 50 36 3 3 38 32 79 64 87 69 270 248 327 320 21 27 47 59 57 70 42 46
184 268 237 370 80 155 193 458 205 550 1 6 7 28 13 50 6 22 14 56 17 75 3 19
8 42 10 50 6 18 14 80 20 140 3 25 7 68 11 95 8 58 7 318 -1 385 -3 25 -8 68
-11 95 -19 173 -95 461 -169 640 -19 45 -130 270 -148 300 -42 67 -133 204
-151 226 -11 14 -28 36 -36 49 -45 67 -269 300 -352 366 -32 25 -63 51 -70 58
-7 7 -26 21 -43 32 -16 10 -39 27 -50 36 -37 31 -198 130 -302 184 -163 85
-459 195 -563 210 -22 3 -44 8 -140 29 -14 3 -49 7 -78 10 -30 3 -57 7 -62 10
-4 3 -56 7 -115 10 -59 3 -111 7 -115 10 -4 2 -9 3 -11 1z m-2031 -1915 c10
-30 19 -40 44 -47 40 -12 47 -31 14 -40 -32 -8 -66 -53 -66 -88 0 -40 -24 -21
-38 30 -7 25 -10 49 -8 53 6 10 16 58 21 96 3 36 3 35 13 35 5 0 14 -17 20
-39z m74 -661 c29 -22 33 -62 9 -84 -50 -44 -124 -2 -101 58 8 22 36 43 61 45
4 1 18 -8 31 -19z m98 -395 c6 -3 10 -21 10 -40 0 -38 -23 -52 -66 -41 -23 6
-29 20 -24 56 4 32 47 45 80 25z"/>
</g>
</svg>
